<?xml version="1.0" standalone="no"?>
<!DOCTYPE svg PUBLIC "-//W3C//DTD SVG 20010904//EN"
 "http://www.w3.org/TR/2001/REC-SVG-20010904/DTD/svg10.dtd">
<svg version="1.0" xmlns="http://www.w3.org/2000/svg"
 width="58.000000pt" height="85.000000pt" viewBox="0 0 58.000000 85.000000"
 preserveAspectRatio="xMidYMid meet">

<g transform="translate(0.000000,85.000000) scale(0.100000,-0.100000)"
fill="#000000" stroke="none">
<path d="M269 820 c-47 -27 -23 -100 32 -100 49 0 67 66 27 94 -26 18 -36 19
-59 6z m50 -33 c15 -19 -10 -53 -33 -44 -16 6 -22 38 -9 50 10 11 30 8 42 -6z"/>
<path d="M182 686 c-64 -21 -110 -56 -132 -102 -18 -37 -20 -61 -20 -277 0
-146 4 -238 10 -242 7 -4 10 74 10 226 0 216 2 236 21 276 14 29 35 51 62 67
38 22 97 43 97 35 0 -2 -7 -26 -15 -53 -17 -55 -20 -136 -6 -136 5 0 13 26 16
58 14 113 51 159 98 122 29 -23 47 -86 47 -164 0 -38 4 -56 13 -56 16 0 6 165
-12 198 -7 13 -10 26 -7 29 9 9 80 -19 115 -45 57 -42 61 -65 61 -327 0 -157
3 -235 10 -235 8 0 10 83 8 257 -3 297 -3 295 -99 347 -44 25 -66 29 -143 32
-60 3 -106 -1 -134 -10z"/>
<path d="M213 448 l-103 -52 21 -22 c11 -12 26 -50 34 -85 7 -35 16 -72 20
-81 6 -15 2 -18 -24 -18 -17 0 -31 -4 -31 -10 0 -6 61 -10 163 -10 l163 0 18
-36 c12 -25 20 -34 27 -27 12 12 0 39 -107 225 -75 131 -82 148 -64 148 6 0
10 5 10 10 0 18 -23 10 -127 -42z m135 -88 c29 -50 50 -95 47 -101 -4 -5 -26
-9 -50 -9 -33 0 -50 6 -65 22 -11 12 -20 25 -20 30 0 4 -4 8 -10 8 -18 0 -11
-28 14 -57 22 -25 30 -28 88 -26 59 1 88 -8 88 -28 0 -12 -187 -11 -210 1 -19
10 -34 47 -45 115 -4 22 -13 47 -21 56 -14 15 -8 20 53 51 37 20 71 34 74 32
3 -2 29 -44 57 -94z"/>
<path d="M220 381 c0 -11 5 -23 10 -26 6 -4 10 5 10 19 0 14 -4 26 -10 26 -5
0 -10 -9 -10 -19z"/>
<path d="M207 133 c-11 -10 -8 -73 3 -73 6 0 10 18 10 40 0 41 -2 45 -13 33z"/>
<path d="M370 101 c0 -23 5 -41 10 -41 6 0 10 14 10 30 0 17 0 33 1 37 0 4 -4
9 -10 11 -7 2 -11 -12 -11 -37z"/>
<path d="M30 20 c0 -6 95 -10 265 -10 170 0 265 4 265 10 0 6 -95 10 -265 10
-170 0 -265 -4 -265 -10z"/>
</g>
</svg>
