<?xml version="1.0" standalone="no"?>
<!DOCTYPE svg PUBLIC "-//W3C//DTD SVG 20010904//EN"
 "http://www.w3.org/TR/2001/REC-SVG-20010904/DTD/svg10.dtd">
<svg version="1.0" xmlns="http://www.w3.org/2000/svg"
 width="256.000000pt" height="256.000000pt" viewBox="0 0 256.000000 256.000000"
 preserveAspectRatio="xMidYMid meet">

<g transform="translate(0.000000,256.000000) scale(0.100000,-0.100000)"
fill="#000000" stroke="none">
<path d="M1458 2409 c-14 -6 -30 -18 -34 -27 -4 -9 -35 -179 -69 -377 l-61
-360 -469 -3 c-334 -2 -478 1 -498 9 -45 19 -84 73 -107 148 -33 112 -96 148
-171 98 -48 -32 -56 -71 -34 -155 10 -37 29 -89 43 -115 33 -61 128 -150 184
-171 l43 -17 0 -537 0 -537 28 -57 c32 -64 80 -111 146 -142 66 -30 226 -30
292 0 66 31 114 78 146 142 26 53 27 64 31 238 l4 182 37 -6 c48 -9 204 -9
263 0 l46 7 4 -187 c3 -210 12 -243 85 -315 64 -65 113 -82 233 -82 91 0 112
3 154 24 67 33 121 91 146 157 19 52 20 76 20 508 0 249 3 468 6 485 l7 31
121 0 c191 0 291 35 387 137 27 29 64 83 82 120 29 64 32 77 35 202 5 153 -4
194 -51 248 -49 56 -96 73 -207 73 l-96 0 -49 51 c-87 89 -100 93 -327 97
l-198 4 -36 49 c-38 52 -80 90 -98 88 -6 0 -23 -5 -38 -10z m587 -419 l69 -70
118 0 118 0 0 -78 c0 -138 -36 -209 -130 -258 -30 -16 -65 -19 -252 -22 l-218
-4 -6 -48 c-3 -26 -10 -53 -14 -59 -5 -9 -40 8 -116 55 -60 36 -110 68 -112
69 -2 2 60 390 74 458 l6 27 197 0 197 0 69 -70z m-517 -682 l182 -111 0 -392
c0 -382 -1 -393 -21 -419 -18 -23 -27 -26 -88 -26 -110 0 -105 -14 -109 336
-2 186 -6 294 -13 294 -5 0 -60 -11 -122 -25 -219 -49 -290 -49 -504 -1 -61
15 -119 26 -127 26 -14 0 -16 -34 -16 -295 0 -349 4 -335 -105 -335 -113 0
-105 -44 -105 550 l0 510 423 0 422 0 183 -112z"/>
<path d="M1872 1967 c-12 -13 -22 -35 -22 -48 0 -33 39 -69 73 -69 61 0 89 76
44 118 -30 28 -68 28 -95 -1z"/>
</g>
</svg>
