<?xml version="1.0" standalone="no"?>
<!DOCTYPE svg PUBLIC "-//W3C//DTD SVG 20010904//EN"
 "http://www.w3.org/TR/2001/REC-SVG-20010904/DTD/svg10.dtd">
<svg version="1.0" xmlns="http://www.w3.org/2000/svg"
 width="96.000000pt" height="96.000000pt" viewBox="0 0 96.000000 96.000000"
 preserveAspectRatio="xMidYMid meet">

<g transform="translate(0.000000,96.000000) scale(0.100000,-0.100000)"
fill="#000000" stroke="none">
<path d="M16 894 c-36 -35 -10 -64 55 -64 26 0 50 -4 53 -9 3 -5 29 -128 56
-272 28 -145 54 -267 58 -271 5 -5 143 -7 308 -6 l299 3 3 24 c7 48 -11 51
-289 51 l-257 0 -6 23 c-16 60 -32 57 269 57 274 0 275 0 289 23 8 12 35 96
60 186 43 152 45 166 31 188 l-15 23 -365 0 c-356 0 -365 0 -365 20 0 28 -30
40 -104 40 -45 0 -69 -5 -80 -16z m574 -169 l5 -50 50 -5 c45 -5 50 -7 50 -30
0 -23 -5 -25 -50 -30 l-50 -5 -5 -50 c-5 -45 -7 -50 -30 -50 -23 0 -25 5 -30
50 l-5 50 -50 5 c-45 5 -50 7 -50 30 0 23 4 25 53 28 l52 3 0 48 c0 54 5 63
35 59 16 -2 21 -12 25 -53z"/>
<path d="M242 190 c-45 -42 -26 -119 34 -134 28 -7 79 16 88 39 31 82 -60 152
-122 95z"/>
<path d="M722 190 c-45 -42 -26 -119 34 -134 28 -7 79 16 88 39 31 82 -60 152
-122 95z"/>
</g>
</svg>
