<?xml version="1.0" standalone="no"?>
<!DOCTYPE svg PUBLIC "-//W3C//DTD SVG 20010904//EN"
 "http://www.w3.org/TR/2001/REC-SVG-20010904/DTD/svg10.dtd">
<svg version="1.0" xmlns="http://www.w3.org/2000/svg"
 width="96.000000pt" height="96.000000pt" viewBox="0 0 96.000000 96.000000"
 preserveAspectRatio="xMidYMid meet">

<g transform="translate(0.000000,96.000000) scale(0.100000,-0.100000)"
fill="#000000" stroke="none">
<path d="M420 951 c-112 -36 -174 -119 -174 -231 0 -79 24 -131 84 -183 144
-123 366 -31 388 160 10 91 -45 191 -130 234 -45 23 -129 33 -168 20z m127
-102 c109 -53 108 -211 -1 -263 -75 -35 -160 -6 -195 67 -24 49 -26 73 -10
114 21 56 83 102 138 103 14 0 44 -9 68 -21z"/>
<path d="M309 376 c-133 -36 -226 -143 -245 -282 -5 -45 -3 -55 15 -73 21 -21
28 -21 401 -21 374 0 380 0 401 21 18 18 21 29 16 76 -14 136 -120 253 -255
282 -69 14 -275 13 -333 -3z m367 -103 c22 -12 55 -38 73 -59 31 -34 39 -50
55 -101 l7 -23 -330 0 -330 0 9 29 c24 84 83 144 170 172 14 5 88 7 165 6 122
-2 145 -5 181 -24z"/>
</g>
</svg>
